<?xml version="1.0" encoding="UTF-8" standalone="no"?>
<!-- Created with sK1/UniConvertor (http://sk1project.org/) -->

<svg
   xmlns:dc="http://purl.org/dc/elements/1.1/"
   xmlns:cc="http://creativecommons.org/ns#"
   xmlns:rdf="http://www.w3.org/1999/02/22-rdf-syntax-ns#"
   xmlns:svg="http://www.w3.org/2000/svg"
   xmlns="http://www.w3.org/2000/svg"
   xmlns:sodipodi="http://sodipodi.sourceforge.net/DTD/sodipodi-0.dtd"
   xmlns:inkscape="http://www.inkscape.org/namespaces/inkscape"
   width="595.276pt"
   height="841.89pt"
   viewBox="0 0 595.276 841.89"
   fill-rule="evenodd"
   id="svg3039"
   version="1.1"
   inkscape:version="0.48.3.1 r9886"
   sodipodi:docname="logo.svg">
  <metadata
     id="metadata3217">
    <rdf:RDF>
      <cc:Work
         rdf:about="">
        <dc:format>image/svg+xml</dc:format>
        <dc:type
           rdf:resource="http://purl.org/dc/dcmitype/StillImage" />
        <dc:title></dc:title>
      </cc:Work>
    </rdf:RDF>
  </metadata>
  <sodipodi:namedview
     pagecolor="#ffffff"
     bordercolor="#666666"
     borderopacity="1"
     objecttolerance="10"
     gridtolerance="10"
     guidetolerance="10"
     inkscape:pageopacity="0"
     inkscape:pageshadow="2"
     inkscape:window-width="1920"
     inkscape:window-height="1050"
     id="namedview3215"
     showgrid="false"
     inkscape:zoom="0.8580693"
     inkscape:cx="372.04749"
     inkscape:cy="572.79756"
     inkscape:window-x="0"
     inkscape:window-y="24"
     inkscape:window-maximized="1"
     inkscape:current-layer="svg3039" />
  <defs
     id="defs3041">
    <marker
       id="ArrowEnd"
       viewBox="0 0 10 10"
       refX="0"
       refY="5"
       markerUnits="strokeWidth"
       markerWidth="4"
       markerHeight="3"
       orient="auto">
      <path
         d="M 0 0 L 10 5 L 0 10 z"
         id="path3044" />
    </marker>
    <marker
       id="ArrowStart"
       viewBox="0 0 10 10"
       refX="10"
       refY="5"
       markerUnits="strokeWidth"
       markerWidth="4"
       markerHeight="3"
       orient="auto">
      <path
         d="M 10 0 L 0 5 L 10 10 z"
         id="path3047" />
    </marker>
  </defs>
  <g
     id="g3051"
     transform="translate(26.105118,183.66815)">
    <path
       inkscape:connector-curvature="0"
       id="path3053"
       d="m 86.3816,434.672 -9.2702,43.352 9.815,0 0.5457,-2.727 c 1.4653,1.25 2.897,2.17 4.2823,2.749 1.3973,0.58 2.738,0.875 4.0331,0.864 1.693,-0.011 3.3172,-0.431 4.9075,-1.272 1.58,-0.829 3.068,-2.011 4.476,-3.534 1.397,-1.522 2.681,-3.328 3.841,-5.407 1.158,-2.079 2.158,-4.362 3.01,-6.862 0.841,-2.499 1.488,-5.146 1.954,-7.93 0.454,-2.794 0.693,-5.657 0.693,-8.6 0.011,-1.931 -0.17,-3.805 -0.534,-5.6 -0.364,-1.807 -0.977,-3.488 -1.84,-5.033 -0.864,-1.545 -2.046,-2.897 -3.544,-4.066 -1.5,-1.16 -3.375,-2.068 -5.624,-2.716 -2.249,-0.647 -4.9539,-0.977 -8.0889,-0.988 -2.2945,0.011 -4.5788,0.329 -6.8622,0.977 -2.2722,0.636 -4.4301,1.522 -6.4755,2.647 -2.0444,1.136 -3.862,2.442 -5.4416,3.942 -1.5898,1.499 -2.8402,3.101 -3.7486,4.828 -0.9092,1.727 -1.375,3.499 -1.3973,5.328 0,1.625 0.2835,2.92 0.8404,3.896 0.5681,0.966 1.3862,1.671 2.4768,2.091 1.0794,0.421 2.4079,0.636 3.9764,0.625 -0.0344,-0.182 -0.1255,-0.42 -0.2734,-0.705 -0.1589,-0.283 -0.3058,-0.716 -0.4537,-1.317 -0.1366,-0.603 -0.2157,-1.477 -0.2277,-2.613 0.012,-2.602 0.4546,-4.92 1.3183,-6.964 0.8749,-2.045 2.1244,-3.772 3.7374,-5.204 1.6243,-1.43 3.5674,-2.521 5.8163,-3.271 2.25,-0.75 4.7602,-1.124 7.5326,-1.124 1.9533,0 3.5441,0.294 4.7827,0.886 1.227,0.59 2.192,1.454 2.862,2.601 0.671,1.136 1.136,2.533 1.398,4.192 0.25,1.648 0.374,3.544 0.363,5.68 0,2.193 -0.136,4.442 -0.409,6.725 -0.261,2.296 -0.658,4.545 -1.181,6.749 -0.523,2.192 -1.159,4.26 -1.908,6.191 -0.762,1.931 -1.613,3.635 -2.5905,5.101 -0.966,1.477 -2.0454,2.636 -3.2149,3.477 -1.1706,0.829 -2.4312,1.26 -3.783,1.271 -0.6481,0 -1.2951,-0.102 -1.9432,-0.317 -0.647,-0.227 -1.295,-0.569 -1.9421,-1.046 l 8.1787,-38.239 -10.0874,1.363 z m 34.5584,9.27 -7.225,34.082 9.815,0 5.658,-26.72 c 0.511,-0.477 1,-0.875 1.466,-1.204 0.454,-0.318 0.942,-0.568 1.454,-0.727 0.522,-0.17 1.113,-0.25 1.783,-0.25 0.398,0.011 0.67,0.17 0.829,0.466 0.16,0.295 0.274,0.67 0.341,1.113 0.08,0.443 0.194,0.886 0.33,1.329 0.147,0.455 0.409,0.818 0.772,1.125 0.376,0.296 0.932,0.455 1.682,0.466 0.84,-0.011 1.567,-0.17 2.203,-0.5 0.637,-0.318 1.171,-0.739 1.602,-1.261 0.433,-0.534 0.762,-1.102 0.977,-1.715 0.216,-0.625 0.33,-1.239 0.33,-1.841 0,-0.875 -0.204,-1.636 -0.591,-2.284 -0.386,-0.647 -0.954,-1.158 -1.681,-1.522 -0.727,-0.363 -1.614,-0.557 -2.635,-0.557 -0.955,0.012 -1.898,0.159 -2.818,0.455 -0.92,0.307 -1.807,0.704 -2.681,1.215 -0.875,0.523 -1.727,1.091 -2.545,1.739 l 0.75,-3.409 -9.816,0 z m 44.306,0 -4.907,23.175 c -0.205,0.819 -0.342,1.569 -0.41,2.25 -0.863,0.704 -1.704,1.284 -2.522,1.738 -0.829,0.466 -1.602,0.705 -2.317,0.716 -0.898,0 -1.602,-0.114 -2.091,-0.34 -0.499,-0.217 -0.851,-0.523 -1.045,-0.91 -0.193,-0.385 -0.284,-0.84 -0.272,-1.34 0,-0.307 0.033,-0.647 0.079,-1 0.057,-0.363 0.125,-0.738 0.193,-1.114 l 4.908,-23.175 -9.816,0 -4.908,23.175 c -0.272,1.296 -0.408,2.455 -0.408,3.478 0.011,1.703 0.352,3.1 1.045,4.203 0.682,1.09 1.659,1.909 2.931,2.431 1.273,0.534 2.783,0.795 4.544,0.795 0.988,-0.011 2.033,-0.284 3.136,-0.818 1.102,-0.534 2.227,-1.226 3.363,-2.09 1.135,-0.864 2.238,-1.807 3.317,-2.818 0.216,1.318 0.682,2.398 1.42,3.238 0.727,0.852 1.681,1.476 2.862,1.886 1.182,0.397 2.545,0.602 4.101,0.602 0.887,-0.011 1.83,-0.239 2.829,-0.682 0.989,-0.454 2,-1.045 3.022,-1.784 1.034,-0.738 2.045,-1.567 3.045,-2.464 0.999,-0.898 1.954,-1.796 2.862,-2.716 0.899,-0.908 1.728,-1.772 2.477,-2.567 0.75,-0.784 1.386,-1.454 1.92,-1.989 l -2.317,0 c -0.682,0.557 -1.409,1.182 -2.17,1.864 -0.761,0.67 -1.545,1.329 -2.329,1.954 -0.783,0.625 -1.568,1.147 -2.329,1.556 -0.761,0.398 -1.488,0.614 -2.17,0.625 -0.897,0 -1.601,-0.114 -2.09,-0.34 -0.5,-0.217 -0.852,-0.523 -1.045,-0.91 -0.193,-0.385 -0.284,-0.84 -0.273,-1.34 0,-0.307 0.035,-0.647 0.08,-1 0.057,-0.363 0.125,-0.738 0.193,-1.114 l 4.907,-23.175 -9.815,0 z m 17.177,0 -10.838,51.123 10.292,-2.443 3.545,-16.642 c 1.023,0.647 2.068,1.158 3.124,1.51 1.068,0.352 2.159,0.534 3.284,0.534 1.749,0.011 3.407,-0.329 4.964,-1.012 1.568,-0.681 3.01,-1.783 4.317,-3.317 1.306,-1.522 2.443,-3.544 3.396,-6.066 0.966,-2.522 1.716,-5.612 2.25,-9.27 0.136,-0.886 0.238,-1.727 0.307,-2.522 0.068,-0.796 0.102,-1.545 0.102,-2.261 0,-2.34 -0.375,-4.203 -1.125,-5.612 -0.761,-1.409 -1.908,-2.42 -3.453,-3.044 -1.534,-0.614 -3.488,-0.921 -5.851,-0.91 -0.852,0 -1.681,0.115 -2.488,0.33 -0.806,0.216 -1.568,0.523 -2.283,0.898 l 0.272,-1.296 -9.815,0 z m 8.315,29.038 c -0.363,0.011 -0.795,-0.012 -1.272,-0.045 -0.476,-0.035 -0.988,-0.148 -1.521,-0.318 -0.546,-0.171 -1.092,-0.466 -1.637,-0.864 l 4.908,-22.959 c 0.647,-0.455 1.295,-0.807 1.942,-1.057 0.648,-0.25 1.295,-0.386 1.943,-0.386 0.739,-0.011 1.386,0.102 1.966,0.363 0.568,0.262 1.022,0.739 1.352,1.454 0.329,0.716 0.499,1.75 0.499,3.102 0,0.818 -0.068,1.794 -0.216,2.942 -0.135,1.137 -0.363,2.465 -0.67,3.965 -0.556,2.703 -1.091,4.953 -1.613,6.736 -0.511,1.796 -1.045,3.204 -1.602,4.238 -0.545,1.034 -1.158,1.772 -1.818,2.204 -0.659,0.432 -1.408,0.636 -2.261,0.625 z m 40.217,-29.038 -0.409,1.773 c -0.625,-0.523 -1.341,-0.932 -2.136,-1.239 -0.795,-0.307 -1.602,-0.454 -2.431,-0.466 -2.272,0.012 -4.283,0.376 -6.055,1.091 -1.772,0.716 -3.317,1.715 -4.635,2.988 -1.318,1.261 -2.431,2.738 -3.351,4.408 -0.921,1.67 -1.659,3.465 -2.216,5.385 -0.557,1.92 -0.965,3.896 -1.226,5.918 -0.25,2.011 -0.376,4.011 -0.376,5.976 -0.011,1.023 0.126,2.034 0.398,3.045 0.273,1.022 0.738,1.942 1.375,2.795 0.636,0.84 1.511,1.522 2.602,2.033 1.09,0.512 2.453,0.773 4.077,0.784 1.387,-0.023 2.648,-0.296 3.795,-0.829 1.148,-0.534 2.182,-1.228 3.09,-2.068 0.909,-0.852 1.704,-1.739 2.385,-2.692 0.455,1.772 1.398,3.078 2.83,3.919 1.431,0.852 3.26,1.272 5.487,1.261 0.886,-0.011 1.829,-0.239 2.829,-0.682 0.988,-0.454 1.999,-1.045 3.022,-1.784 1.033,-0.738 2.044,-1.556 3.044,-2.453 1,-0.897 1.954,-1.807 2.863,-2.727 0.897,-0.908 1.726,-1.772 2.477,-2.567 0.749,-0.796 1.386,-1.454 1.92,-1.989 l -2.318,0 c -0.682,0.557 -1.409,1.182 -2.17,1.864 -0.761,0.67 -1.545,1.329 -2.329,1.954 -0.784,0.625 -1.568,1.147 -2.329,1.556 -0.761,0.398 -1.488,0.614 -2.17,0.625 -0.897,0 -1.601,-0.114 -2.09,-0.34 -0.5,-0.217 -0.852,-0.523 -1.045,-0.91 -0.193,-0.385 -0.285,-0.84 -0.272,-1.34 0,-0.307 0.033,-0.647 0.079,-1 0.056,-0.363 0.125,-0.738 0.193,-1.114 l 4.908,-23.175 -9.816,0 z m -4.43,3.886 c 0.488,-0.011 1.022,0.08 1.613,0.25 0.59,0.181 1.17,0.511 1.726,0.977 l -3.817,18.062 c -0.205,0.819 -0.34,1.569 -0.408,2.25 -0.432,0.647 -0.887,1.215 -1.364,1.727 -0.466,0.522 -0.954,0.92 -1.454,1.227 -0.511,0.296 -1.023,0.443 -1.545,0.455 -0.591,0.011 -1.182,-0.103 -1.783,-0.342 -0.603,-0.25 -1.114,-0.727 -1.523,-1.431 -0.421,-0.693 -0.636,-1.716 -0.647,-3.067 0,-1.875 0.159,-3.749 0.465,-5.647 0.307,-1.896 0.739,-3.714 1.295,-5.441 0.569,-1.715 1.228,-3.261 1.988,-4.612 0.773,-1.352 1.613,-2.421 2.534,-3.204 0.92,-0.784 1.897,-1.193 2.92,-1.204 z m 24.675,-16.155 -7.566,35.444 c -0.273,1.296 -0.41,2.455 -0.41,3.478 0.012,1.703 0.353,3.1 1.023,4.203 0.682,1.09 1.648,1.909 2.908,2.431 1.261,0.534 2.761,0.795 4.521,0.795 0.887,-0.011 1.83,-0.239 2.83,-0.682 0.988,-0.454 1.999,-1.045 3.021,-1.784 1.034,-0.738 2.046,-1.567 3.045,-2.464 0.999,-0.898 1.954,-1.796 2.863,-2.716 0.898,-0.908 1.727,-1.772 2.476,-2.567 0.751,-0.784 1.387,-1.454 1.92,-1.989 l -2.318,0 c -0.681,0.557 -1.408,1.182 -2.169,1.864 -0.761,0.67 -1.545,1.329 -2.329,1.954 -0.784,0.625 -1.568,1.147 -2.328,1.556 -0.762,0.398 -1.489,0.614 -2.17,0.625 -0.875,0 -1.569,-0.114 -2.068,-0.318 -0.5,-0.216 -0.841,-0.511 -1.045,-0.886 -0.205,-0.375 -0.307,-0.818 -0.296,-1.318 0,-0.261 0.035,-0.568 0.091,-0.909 0.068,-0.341 0.148,-0.772 0.25,-1.273 l 7.839,-36.807 -10.088,1.363 z m 46.009,34.081 c -0.851,1.455 -1.943,2.671 -3.26,3.636 -1.318,0.966 -2.784,1.693 -4.408,2.181 -1.624,0.489 -3.317,0.727 -5.078,0.727 -1.829,0 -3.328,-0.238 -4.51,-0.738 -1.182,-0.488 -2.091,-1.25 -2.749,-2.284 -0.66,-1.034 -1.114,-2.351 -1.364,-3.964 -0.261,-1.614 -0.386,-3.534 -0.375,-5.761 0,-2.044 0.148,-4.168 0.444,-6.395 0.283,-2.227 0.703,-4.431 1.26,-6.635 0.557,-2.193 1.239,-4.283 2.034,-6.248 0.807,-1.966 1.715,-3.703 2.738,-5.226 1.022,-1.533 2.147,-2.726 3.362,-3.601 1.228,-0.875 2.534,-1.329 3.931,-1.34 1.08,0.011 1.943,0.215 2.579,0.601 0.636,0.387 1.102,0.853 1.409,1.409 0.307,0.556 0.5,1.091 0.59,1.614 0.091,0.522 0.137,0.92 0.126,1.215 0,0.432 -0.08,0.942 -0.228,1.523 -0.147,0.579 -0.364,1.158 -0.636,1.726 -0.261,0.579 -0.579,1.079 -0.943,1.5 -0.363,0.431 -0.761,0.704 -1.193,0.84 0.432,0.489 0.886,0.864 1.341,1.125 0.455,0.261 0.908,0.431 1.341,0.523 0.431,0.091 0.84,0.124 1.204,0.124 1.158,-0.011 2.078,-0.283 2.783,-0.829 0.704,-0.534 1.204,-1.272 1.522,-2.215 0.318,-0.931 0.477,-2.011 0.466,-3.227 -0.011,-1.646 -0.329,-3.056 -0.966,-4.214 -0.625,-1.171 -1.488,-2.113 -2.59,-2.829 -1.091,-0.727 -2.351,-1.261 -3.771,-1.59 -1.421,-0.341 -2.932,-0.5 -4.533,-0.5 -3.011,0.022 -5.681,0.511 -7.998,1.499 -2.318,0.977 -4.317,2.329 -6.022,4.056 -1.692,1.715 -3.112,3.704 -4.26,5.942 -1.158,2.249 -2.078,4.646 -2.76,7.191 -0.693,2.556 -1.182,5.135 -1.488,7.77 -0.307,2.636 -0.455,5.192 -0.443,7.691 0.011,2.784 0.307,5.18 0.886,7.169 0.579,1.999 1.363,3.658 2.363,4.987 1,1.317 2.147,2.363 3.419,3.136 1.284,0.761 2.625,1.306 4.033,1.624 1.421,0.318 2.829,0.477 4.227,0.466 1.295,0.011 2.658,-0.091 4.101,-0.296 1.442,-0.204 2.885,-0.557 4.339,-1.056 1.466,-0.511 2.863,-1.216 4.215,-2.124 1.341,-0.909 2.568,-2.057 3.669,-3.454 1.113,-1.397 2.034,-3.078 2.761,-5.067 l -1.568,-0.682 z m 21.403,-21.812 -0.409,1.773 c -0.625,-0.523 -1.34,-0.932 -2.135,-1.239 -0.795,-0.307 -1.602,-0.454 -2.432,-0.466 -2.272,0.012 -4.283,0.376 -6.055,1.091 -1.772,0.716 -3.317,1.715 -4.634,2.988 -1.319,1.261 -2.432,2.738 -3.352,4.408 -0.921,1.67 -1.659,3.465 -2.216,5.385 -0.556,1.92 -0.965,3.896 -1.226,5.918 -0.25,2.011 -0.375,4.011 -0.375,5.976 -0.012,1.023 0.125,2.034 0.397,3.045 0.273,1.022 0.739,1.942 1.375,2.795 0.636,0.84 1.511,1.522 2.602,2.033 1.09,0.512 2.453,0.773 4.078,0.784 1.386,-0.023 2.647,-0.296 3.795,-0.829 1.147,-0.534 2.181,-1.228 3.089,-2.068 0.909,-0.852 1.704,-1.739 2.386,-2.692 0.454,1.772 1.397,3.078 2.829,3.919 1.432,0.852 3.26,1.272 5.487,1.261 0.886,-0.011 1.829,-0.239 2.829,-0.682 0.988,-0.454 1.999,-1.045 3.022,-1.784 1.034,-0.738 2.044,-1.556 3.045,-2.453 0.999,-0.897 1.953,-1.807 2.862,-2.727 0.897,-0.908 1.727,-1.772 2.477,-2.567 0.749,-0.796 1.386,-1.454 1.92,-1.989 l -2.318,0 c -0.682,0.557 -1.409,1.182 -2.17,1.864 -0.76,0.67 -1.545,1.329 -2.329,1.954 -0.784,0.625 -1.567,1.147 -2.329,1.556 -0.76,0.398 -1.487,0.614 -2.17,0.625 -0.897,0 -1.601,-0.114 -2.09,-0.34 -0.5,-0.217 -0.851,-0.523 -1.045,-0.91 -0.193,-0.385 -0.284,-0.84 -0.272,-1.34 0,-0.307 0.033,-0.647 0.079,-1 0.057,-0.363 0.125,-0.738 0.193,-1.114 l 4.908,-23.175 -9.816,0 z m -4.43,3.886 c 0.488,-0.011 1.022,0.08 1.613,0.25 0.591,0.181 1.17,0.511 1.727,0.977 l -3.818,18.062 c -0.204,0.819 -0.34,1.569 -0.408,2.25 -0.432,0.647 -0.887,1.215 -1.364,1.727 -0.466,0.522 -0.954,0.92 -1.454,1.227 -0.511,0.296 -1.023,0.443 -1.545,0.455 -0.59,0.011 -1.182,-0.103 -1.783,-0.342 -0.603,-0.25 -1.114,-0.727 -1.523,-1.431 -0.42,-0.693 -0.636,-1.716 -0.647,-3.067 0,-1.875 0.159,-3.749 0.466,-5.647 0.306,-1.896 0.738,-3.714 1.295,-5.441 0.568,-1.715 1.227,-3.261 1.987,-4.612 0.773,-1.352 1.613,-2.421 2.534,-3.204 0.92,-0.784 1.897,-1.193 2.92,-1.204 z m 63.664,6.271 c 0.034,-0.273 0.068,-0.534 0.091,-0.784 0.034,-0.25 0.045,-0.511 0.045,-0.784 -0.011,-1.17 -0.238,-2.272 -0.693,-3.295 -0.454,-1.034 -1.068,-1.942 -1.817,-2.738 -0.762,-0.795 -1.602,-1.419 -2.523,-1.863 -0.919,-0.454 -1.851,-0.681 -2.805,-0.693 -1.113,0.012 -2.249,0.227 -3.397,0.636 -1.148,0.409 -2.272,0.955 -3.386,1.637 -1.101,0.681 -2.158,1.419 -3.169,2.226 -0.511,-0.897 -1.125,-1.682 -1.852,-2.352 -0.727,-0.669 -1.511,-1.193 -2.363,-1.567 -0.841,-0.386 -1.681,-0.568 -2.533,-0.58 -0.977,0.012 -1.977,0.171 -2.977,0.501 -0.999,0.318 -1.999,0.749 -2.976,1.295 -0.977,0.545 -1.932,1.147 -2.84,1.817 l 0.749,-3.613 -9.815,0 -7.226,34.082 9.816,0 5.862,-27.538 c 0.67,-0.477 1.33,-0.841 1.977,-1.079 0.648,-0.239 1.375,-0.352 2.181,-0.352 0.944,0.011 1.693,0.375 2.261,1.091 0.568,0.715 0.864,1.692 0.875,2.93 0,0.273 -0.011,0.557 -0.046,0.864 -0.034,0.295 -0.091,0.602 -0.159,0.909 l -4.908,23.175 9.884,0 5.044,-23.925 c 0.034,-0.239 0.069,-0.477 0.091,-0.716 0.034,-0.238 0.045,-0.477 0.045,-0.716 0,-0.408 -0.034,-0.806 -0.091,-1.193 -0.056,-0.386 -0.148,-0.784 -0.25,-1.193 0.637,-0.409 1.273,-0.715 1.898,-0.919 0.636,-0.205 1.318,-0.307 2.056,-0.307 0.943,0.011 1.692,0.375 2.26,1.091 0.568,0.715 0.864,1.692 0.875,2.93 0,0.273 -0.011,0.557 -0.045,0.864 -0.034,0.295 -0.09,0.602 -0.159,0.909 l -2.59,12.268 c -0.136,0.648 -0.238,1.251 -0.307,1.819 -0.068,0.568 -0.102,1.113 -0.102,1.659 0.012,1.703 0.341,3.1 1.011,4.203 0.67,1.09 1.624,1.909 2.886,2.431 1.261,0.534 2.783,0.795 4.555,0.795 1.068,-0.022 2.158,-0.341 3.261,-0.954 1.102,-0.614 2.192,-1.409 3.272,-2.398 1.079,-0.988 2.113,-2.055 3.101,-3.18 0.988,-1.136 1.897,-2.238 2.738,-3.295 0.852,-1.056 1.579,-1.966 2.215,-2.715 l -3.204,0 c -0.397,0.749 -0.863,1.522 -1.397,2.318 -0.534,0.806 -1.113,1.556 -1.749,2.26 -0.625,0.694 -1.284,1.262 -1.966,1.704 -0.681,0.432 -1.364,0.659 -2.045,0.67 -0.716,0 -1.284,-0.124 -1.692,-0.374 -0.409,-0.25 -0.694,-0.579 -0.864,-1 -0.159,-0.421 -0.239,-0.887 -0.239,-1.42 0,-0.409 0.035,-0.83 0.091,-1.261 0.068,-0.432 0.148,-0.852 0.251,-1.262 l 2.794,-13.018 z m 8.452,-10.157 -10.837,51.123 10.292,-2.443 3.545,-16.642 c 1.022,0.647 2.067,1.158 3.123,1.51 1.069,0.352 2.159,0.534 3.284,0.534 1.749,0.011 3.408,-0.329 4.964,-1.012 1.568,-0.681 3.01,-1.783 4.317,-3.317 1.307,-1.522 2.443,-3.544 3.397,-6.066 0.966,-2.522 1.715,-5.612 2.25,-9.27 0.135,-0.886 0.238,-1.727 0.306,-2.522 0.068,-0.796 0.103,-1.545 0.103,-2.261 0,-2.34 -0.376,-4.203 -1.125,-5.612 -0.762,-1.409 -1.909,-2.42 -3.454,-3.044 -1.533,-0.614 -3.488,-0.921 -5.851,-0.91 -0.851,0 -1.681,0.115 -2.488,0.33 -0.806,0.216 -1.567,0.523 -2.283,0.898 l 0.272,-1.296 -9.815,0 z m 8.316,29.038 c -0.364,0.011 -0.795,-0.012 -1.272,-0.045 -0.477,-0.035 -0.988,-0.148 -1.522,-0.318 -0.546,-0.171 -1.092,-0.466 -1.636,-0.864 l 4.908,-22.959 c 0.647,-0.455 1.295,-0.807 1.942,-1.057 0.648,-0.25 1.295,-0.386 1.943,-0.386 0.738,-0.011 1.385,0.102 1.965,0.363 0.568,0.262 1.022,0.739 1.352,1.454 0.329,0.716 0.499,1.75 0.499,3.102 0,0.818 -0.068,1.794 -0.215,2.942 -0.136,1.137 -0.364,2.465 -0.671,3.965 -0.556,2.703 -1.09,4.953 -1.613,6.736 -0.511,1.796 -1.045,3.204 -1.602,4.238 -0.545,1.034 -1.158,1.772 -1.817,2.204 -0.659,0.432 -1.409,0.636 -2.261,0.625 z"
       style="fill:#f8252a;stroke:none" />
    <path
       inkscape:connector-curvature="0"
       id="path3055"
       d="m 91.8595,516.241 0.079,0 2.6218,-13.409 4.0851,0 -4.6132,19.759 -3.678,0 -3.6407,-13.015 -0.0781,0 -3.6222,13.015 -3.6779,0 -4.6133,-19.759 4.0805,0 2.6358,13.395 0.079,0 3.5571,-13.395 3.2001,0 3.585,13.409 z m 46.4775,-1.547 0,7.897 -3.961,0 0,-19.759 6.836,0 c 2.252,0 4.017,0.514 5.286,1.542 1.274,1.028 1.908,2.459 1.908,4.293 0,1.015 -0.269,1.89 -0.806,2.627 -0.542,0.736 -1.324,1.334 -2.357,1.783 1.167,0.343 2.005,0.921 2.519,1.723 0.51,0.806 0.764,1.802 0.764,2.988 l 0,1.449 c 0,0.556 0.075,1.131 0.227,1.732 0.148,0.603 0.403,1.047 0.765,1.334 l 0,0.288 -4.086,0 c -0.361,-0.292 -0.593,-0.769 -0.699,-1.44 -0.102,-0.668 -0.153,-1.316 -0.153,-1.942 l 0,-1.393 c 0,-0.988 -0.269,-1.756 -0.811,-2.302 -0.536,-0.547 -1.297,-0.82 -2.283,-0.82 l -3.149,0 z m 0,-3.052 2.811,0 c 1.111,0 1.936,-0.238 2.483,-0.71 0.542,-0.468 0.81,-1.167 0.81,-2.089 0,-0.903 -0.273,-1.62 -0.82,-2.158 -0.546,-0.533 -1.348,-0.797 -2.409,-0.797 l -2.875,0 0,5.754 z m 63.359,2.847 c 0,2.432 -0.764,4.438 -2.293,6.017 -1.528,1.58 -3.521,2.372 -5.97,2.372 -2.446,0 -4.424,-0.792 -5.948,-2.376 -1.519,-1.585 -2.278,-3.59 -2.278,-6.013 l 0,-3.557 c 0,-2.412 0.759,-4.414 2.274,-6.002 1.514,-1.589 3.487,-2.381 5.924,-2.381 2.45,0 4.447,0.792 5.984,2.381 1.538,1.588 2.307,3.59 2.307,6.002 l 0,3.557 z m -3.951,-3.58 c 0,-1.543 -0.384,-2.802 -1.153,-3.789 -0.769,-0.986 -1.83,-1.477 -3.187,-1.477 -1.339,0 -2.381,0.491 -3.132,1.477 -0.745,0.987 -1.115,2.246 -1.115,3.789 l 0,3.58 c 0,1.566 0.374,2.84 1.125,3.827 0.75,0.986 1.802,1.477 3.15,1.477 1.357,0 2.413,-0.491 3.173,-1.477 0.759,-0.987 1.139,-2.261 1.139,-3.827 l 0,-3.58 z m 55.532,5.141 0.027,0.079 c 0.033,2.113 -0.606,3.761 -1.926,4.957 -1.325,1.194 -3.145,1.792 -5.47,1.792 -2.372,0 -4.285,-0.764 -5.74,-2.288 -1.458,-1.524 -2.185,-3.498 -2.185,-5.91 l 0,-3.924 c 0,-2.404 0.708,-4.377 2.13,-5.91 1.422,-1.533 3.284,-2.297 5.591,-2.297 2.408,0 4.289,0.588 5.646,1.765 1.358,1.176 2.015,2.83 1.982,4.965 l -0.028,0.083 -3.853,0 c 0,-1.269 -0.306,-2.214 -0.917,-2.83 -0.612,-0.62 -1.556,-0.931 -2.83,-0.931 -1.186,0 -2.112,0.477 -2.774,1.431 -0.668,0.955 -0.997,2.187 -0.997,3.697 l 0,3.951 c 0,1.519 0.348,2.76 1.052,3.719 0.7,0.959 1.672,1.436 2.923,1.436 1.185,0 2.07,-0.31 2.654,-0.927 0.583,-0.62 0.875,-1.575 0.875,-2.858 l 3.84,0 z m 40.358,-5.455 3.293,-0.951 0,2.646 -3.293,0.949 0,6.313 8.847,0 0,3.039 -12.813,0 0,-8.208 -1.561,0.445 0,-2.645 1.561,-0.449 0,-8.902 3.966,0 0,7.763 z m 54.169,7.735 -6.405,0 -1.33,4.261 -4.136,0 6.66,-19.759 4.058,0 6.638,19.759 -4.141,0 -1.344,-4.261 z m -5.428,-3.108 4.465,0 -2.182,-6.962 -0.084,0 -2.199,6.962 z m 61.501,1.019 0.079,0 2.622,-13.409 4.085,0 -4.613,19.759 -3.678,0 -3.641,-13.015 -0.078,0 -3.622,13.015 -3.678,0 -4.613,-19.759 4.08,0 2.636,13.395 0.079,0 3.557,-13.395 3.2,0 3.585,13.409 z"
       style="fill:#1b89d7;stroke:none" />
    <path
       inkscape:connector-curvature="0"
       id="path3057"
       d="m 451.763,501.232 5.459,0 0,-29.176 -5.459,0 0,29.176 z"
       style="fill:#f8252a;stroke:none" />
    <path
       inkscape:connector-curvature="0"
       id="path3059"
       d="m 483.073,501.232 5.458,0 0,-28.039 -5.458,0 0,28.039 z"
       style="fill:#f8252a;stroke:none" />
    <path
       inkscape:connector-curvature="0"
       id="path3061"
       d="m 451.764,493.925 36.768,0 0,17.095 c -5.234,-2.873 -11.245,-4.508 -17.638,-4.508 -6.713,0 -13.002,1.803 -18.416,4.948 l -0.714,0 0,-17.535 z"
       style="fill:#f8252a;stroke:none" />
    <path
       inkscape:connector-curvature="0"
       id="path3063"
       d="m 470.393,469.62 c 2.766,0 5.007,2.241 5.007,5.007 0,2.766 -2.241,5.008 -5.007,5.008 -2.765,0 -5.007,-2.242 -5.007,-5.008 0,-2.766 2.242,-5.007 5.007,-5.007 z"
       style="fill:#f8252a;stroke:none" />
    <path
       inkscape:connector-curvature="0"
       id="path3065"
       d="m 470.393,481.796 c 2.766,0 5.007,2.242 5.007,5.007 0,2.766 -2.241,5.008 -5.007,5.008 -2.765,0 -5.007,-2.242 -5.007,-5.008 0,-2.765 2.242,-5.007 5.007,-5.007 z"
       style="fill:#f8252a;stroke:none" />
    <path
       inkscape:connector-curvature="0"
       id="path3067"
       d="m 432.331,524.445 c 3.682,-6.59 10.724,-11.046 18.809,-11.046 8.084,0 15.127,4.456 18.808,11.046 -5.124,-1.91 -11.672,-3.057 -18.808,-3.057 -7.137,0 -13.685,1.147 -18.809,3.057 z"
       style="fill:#f8252a;stroke:none" />
    <path
       inkscape:connector-curvature="0"
       id="path3069"
       d="m 470.649,524.445 c 3.681,-6.59 10.723,-11.046 18.808,-11.046 8.084,0 15.127,4.456 18.807,11.046 -5.122,-1.91 -11.671,-3.057 -18.807,-3.057 -7.137,0 -13.685,1.147 -18.808,3.057 z"
       style="fill:#f8252a;stroke:none" />
    <path
       inkscape:connector-curvature="0"
       id="path3071"
       d="m 488.486,501.696 c 4.545,-2.539 7.618,-7.396 7.618,-12.972 0,-5.575 -3.073,-10.432 -7.618,-12.971 1.317,3.533 2.108,8.05 2.108,12.971 0,4.922 -0.791,9.438 -2.108,12.972 z"
       style="fill:#f8252a;stroke:none" />
    <path
       inkscape:connector-curvature="0"
       id="path3073"
       d="m 451.763,501.696 c -4.545,-2.539 -7.619,-7.396 -7.619,-12.972 0,-5.575 3.074,-10.432 7.619,-12.971 -1.317,3.533 -2.109,8.05 -2.109,12.971 0,4.922 0.792,9.438 2.109,12.972 z"
       style="fill:#f8252a;stroke:none" />
    <path
       inkscape:connector-curvature="0"
       id="path3075"
       d="m 447.067,462.81 -3.136,3.32 12.419,14.104 8.271,-9.059 c -6.555,-1.373 -12.539,-4.294 -17.554,-8.365 z"
       style="fill:#f8252a;stroke:none" />
    <path
       inkscape:connector-curvature="0"
       id="path3077"
       d="m 493.875,462.81 3.136,3.32 -12.419,14.104 -8.271,-9.059 c 6.555,-1.373 12.54,-4.294 17.554,-8.365 z"
       style="fill:#f8252a;stroke:none" />
    <path
       inkscape:connector-curvature="0"
       id="path3079"
       d="m 470.39,344.507 c 5.744,18.141 31.708,59.371 35.688,75.324 l -0.004,-0.003 c 1.004,3.363 1.544,6.926 1.544,10.615 0,20.47 -16.593,37.064 -37.063,37.064 -20.471,0 -37.065,-16.594 -37.065,-37.064 0,-7.473 2.214,-14.428 6.017,-20.249 8.115,-13.451 25.963,-50.155 30.883,-65.687 z"
       style="fill:#1b89d7;stroke:none" />
    <path
       inkscape:connector-curvature="0"
       id="path3081"
       d="m 433.708,434.518 c -4.043,-0.496 -6.918,-4.175 -6.423,-8.217 0.496,-4.042 4.176,-6.918 8.218,-6.422 l -0.496,4.046 c -1.808,-0.222 -3.454,1.065 -3.675,2.872 -0.222,1.808 1.064,3.454 2.872,3.676 l -0.496,4.045 z"
       style="fill:#1b89d7;stroke:none" />
    <path
       inkscape:connector-curvature="0"
       id="path3083"
       d="m 507.318,434.518 c 4.042,-0.496 6.918,-4.175 6.422,-8.217 -0.495,-4.042 -4.175,-6.918 -8.217,-6.422 l 0.496,4.046 c 1.808,-0.222 3.453,1.065 3.675,2.872 0.222,1.808 -1.065,3.454 -2.872,3.676 l 0.496,4.045 z"
       style="fill:#1b89d7;stroke:none" />
    <path
       inkscape:connector-curvature="0"
       id="path3085"
       d="m 478.296,433.327 c -0.044,-4.072 -3.382,-7.338 -7.454,-7.294 -4.072,0.044 -7.338,3.382 -7.294,7.454 l 4.076,-0.044 c -0.02,-1.821 1.441,-3.314 3.262,-3.334 1.822,-0.02 3.315,1.441 3.334,3.262 l 4.076,-0.044 z"
       style="fill:#ffffff;stroke:none" />
    <path
       inkscape:connector-curvature="0"
       id="path3087"
       d="m 463.507,424.733 c 4.732,-3.38 9.03,-3.643 14.385,0.071 2.714,1.883 4.821,3.789 8.452,3.789 5.228,0 9.467,-4.24 9.467,-9.468 0,-5.228 -5.903,-9.468 -9.467,-9.468 -3.196,0 -4.672,0.972 -7.192,2.437 -6.431,3.737 -10.28,4.093 -16.382,0.25 -2.623,-1.652 -4.543,-2.687 -7.853,-2.687 -3.565,0 -9.468,4.24 -9.468,9.468 0,5.228 4.24,9.468 9.468,9.468 3.684,0 5.863,-1.912 8.59,-3.86 z"
       style="fill:#ffffff;stroke:none" />
    <path
       inkscape:connector-curvature="0"
       id="path3089"
       d="m 494.62,440.363 c 2.736,-0.379 5.505,-2.136 8.305,-5.294 -1.58,9.316 -6.189,15.646 -16.223,15.513 -4.863,-0.064 -11.037,-2.543 -14.107,-6.458 -2.442,-3.116 -3.171,-8.333 0.485,-10.684 1.474,-0.949 4.111,-0.833 6.485,-0.283 2.662,0.617 4.531,1.569 6.271,3.283 2.568,2.53 4.742,4.485 8.784,3.923 z"
       style="fill:#ffffff;stroke:none" />
    <path
       inkscape:connector-curvature="0"
       id="path3091"
       d="m 446.335,440.363 c -2.737,-0.379 -5.505,-2.136 -8.305,-5.294 1.58,9.316 6.189,15.646 16.223,15.513 4.863,-0.064 11.037,-2.543 14.106,-6.458 2.443,-3.116 3.172,-8.333 -0.484,-10.684 -1.475,-0.949 -4.112,-0.833 -6.485,-0.283 -2.661,0.617 -4.532,1.569 -6.271,3.283 -2.569,2.53 -4.742,4.485 -8.784,3.923 z"
       style="fill:#ffffff;stroke:none" />
    <path
       inkscape:connector-curvature="0"
       id="path3093"
       d="m 468.588,454.031 c -4.059,-0.06 -7.31,-3.391 -7.266,-7.453 l 4.076,0.044 c -0.019,1.796 1.403,3.274 3.19,3.332 l 0,4.077 z"
       style="fill:#ffffff;stroke:none" />
    <path
       inkscape:connector-curvature="0"
       id="path3095"
       d="m 472.498,454.031 c 4.059,-0.06 7.31,-3.391 7.266,-7.453 l -4.076,0.044 c 0.02,1.796 -1.403,3.274 -3.19,3.332 l 0,4.077 z"
       style="fill:#ffffff;stroke:none" />
    <path
       inkscape:connector-curvature="0"
       id="path3097"
       d="m 468.588,449.954 4.094,0 0,4.071 -4.094,0 0,-4.071 z"
       style="fill:#ffffff;stroke:none" />
    <path
       inkscape:connector-curvature="0"
       id="path3099"
       d="m 438.828,411.272 c 0,-15.869 0,-31.738 0,-47.608 2.045,14.004 20.016,26.756 32.046,30.751 -5.79,5.619 -26.257,11.239 -32.046,16.857 z"
       style="fill:#1b89d7;stroke:none" />
    <path
       inkscape:connector-curvature="0"
       id="path3101"
       d="m 463.256,407.278 c -0.044,-4.072 -3.381,-7.338 -7.454,-7.294 -4.072,0.044 -7.338,3.382 -7.294,7.454 l 4.076,-0.044 c -0.019,-1.821 1.442,-3.314 3.263,-3.334 1.821,-0.02 3.314,1.441 3.334,3.262 l 4.075,-0.044 z"
       style="fill:#ffffff;stroke:none" />
    <path
       inkscape:connector-curvature="0"
       id="path3103"
       d="m 502.293,411.272 c 0,-15.869 0,-31.738 0,-47.608 -2.045,14.004 -20.015,26.756 -32.045,30.751 5.789,5.619 26.257,11.239 32.045,16.857 z"
       style="fill:#1b89d7;stroke:none" />
    <path
       inkscape:connector-curvature="0"
       id="path3105"
       d="m 491.77,407.278 c -0.044,-4.072 -3.382,-7.338 -7.454,-7.294 -4.072,0.044 -7.338,3.382 -7.294,7.454 l 4.076,-0.044 c -0.02,-1.821 1.441,-3.314 3.262,-3.334 1.822,-0.02 3.315,1.441 3.334,3.262 l 4.076,-0.044 z"
       style="fill:#ffffff;stroke:none" />
    <path
       inkscape:connector-curvature="0"
       id="path3107"
       d="m 463.097,341.115 c 1.804,0 3.109,12.092 -0.099,12.092 -2.76,0 -1.684,-12.092 0.099,-12.092 z"
       style="fill:#00ccff;stroke:none" />
    <path
       inkscape:connector-curvature="0"
       id="path3109"
       d="m 470.104,329.117 c 1.804,0 3.109,12.091 -0.1,12.091 -2.759,0 -1.683,-12.091 0.1,-12.091 z"
       style="fill:#00ccff;stroke:none" />
    <path
       inkscape:connector-curvature="0"
       id="path3111"
       d="m 457.853,351.35 c 1.804,0 3.109,12.092 -0.099,12.092 -2.76,0 -1.684,-12.092 0.099,-12.092 z"
       style="fill:#00ccff;stroke:none" />
    <path
       inkscape:connector-curvature="0"
       id="path3113"
       d="m 452.609,361.586 c 1.804,0 3.11,12.092 -0.099,12.092 -2.759,0 -1.684,-12.092 0.099,-12.092 z"
       style="fill:#1b89d7;stroke:none" />
    <path
       inkscape:connector-curvature="0"
       id="path3115"
       d="m 463.097,341.115 c 1.804,0 3.109,12.092 -0.099,12.092 -2.76,0 -1.684,-12.092 0.099,-12.092 z"
       style="fill:#1b89d7;stroke:none" />
    <path
       inkscape:connector-curvature="0"
       id="path3117"
       d="m 457.853,351.35 c 1.804,0 3.109,12.092 -0.099,12.092 -2.76,0 -1.684,-12.092 0.099,-12.092 z"
       style="fill:#1b89d7;stroke:none" />
    <path
       inkscape:connector-curvature="0"
       id="path3119"
       d="m 477.192,341.115 c -1.804,0 -3.109,12.092 0.099,12.092 2.76,0 1.684,-12.092 -0.099,-12.092 z"
       style="fill:#00ccff;stroke:none" />
    <path
       inkscape:connector-curvature="0"
       id="path3121"
       d="m 470.185,329.117 c -1.804,0 -3.109,12.091 0.099,12.091 2.76,0 1.684,-12.091 -0.099,-12.091 z"
       style="fill:#1b89d7;stroke:none" />
    <path
       inkscape:connector-curvature="0"
       id="path3123"
       d="m 482.436,351.35 c -1.804,0 -3.11,12.092 0.099,12.092 2.759,0 1.684,-12.092 -0.099,-12.092 z"
       style="fill:#00ccff;stroke:none" />
    <path
       inkscape:connector-curvature="0"
       id="path3125"
       d="m 487.68,361.586 c -1.804,0 -3.11,12.092 0.099,12.092 2.759,0 1.684,-12.092 -0.099,-12.092 z"
       style="fill:#1b89d7;stroke:none" />
    <path
       inkscape:connector-curvature="0"
       id="path3127"
       d="m 477.192,341.115 c -1.804,0 -3.109,12.092 0.099,12.092 2.76,0 1.684,-12.092 -0.099,-12.092 z"
       style="fill:#1b89d7;stroke:none" />
    <path
       inkscape:connector-curvature="0"
       id="path3129"
       d="m 482.436,351.35 c -1.804,0 -3.11,12.092 0.099,12.092 2.759,0 1.684,-12.092 -0.099,-12.092 z"
       style="fill:#1b89d7;stroke:none" />
  </g>
  <g
     id="g3131"
     transform="translate(10.255582,-179.00654)">
    <path
       inkscape:connector-curvature="0"
       id="path3133"
       d="m 268.854,441.644 6.754,0 0,-36.102 -6.754,0 0,36.102 z"
       style="fill:#f8252a;stroke:none" />
    <path
       inkscape:connector-curvature="0"
       id="path3135"
       d="m 307.596,441.644 6.754,0 0,-34.694 -6.754,0 0,34.694 z"
       style="fill:#f8252a;stroke:none" />
    <path
       inkscape:connector-curvature="0"
       id="path3137"
       d="m 268.855,432.602 45.496,0 0,21.153 c -6.477,-3.554 -13.915,-5.577 -21.825,-5.577 -8.306,0 -16.089,2.231 -22.788,6.122 l -0.883,0 0,-21.698 z"
       style="fill:#f8252a;stroke:none" />
    <path
       inkscape:connector-curvature="0"
       id="path3139"
       d="m 291.906,402.528 c 3.422,0 6.196,2.773 6.196,6.195 0,3.424 -2.774,6.197 -6.196,6.197 -3.422,0 -6.195,-2.773 -6.195,-6.197 0,-3.422 2.773,-6.195 6.195,-6.195 z"
       style="fill:#f8252a;stroke:none" />
    <path
       inkscape:connector-curvature="0"
       id="path3141"
       d="m 291.906,417.595 c 3.422,0 6.196,2.773 6.196,6.195 0,3.422 -2.774,6.197 -6.196,6.197 -3.422,0 -6.195,-2.775 -6.195,-6.197 0,-3.422 2.773,-6.195 6.195,-6.195 z"
       style="fill:#f8252a;stroke:none" />
    <path
       inkscape:connector-curvature="0"
       id="path3143"
       d="m 244.809,470.367 c 4.555,-8.154 13.269,-13.668 23.273,-13.668 10.004,0 18.718,5.514 23.273,13.668 -6.339,-2.363 -14.442,-3.783 -23.273,-3.783 -8.83,0 -16.933,1.42 -23.273,3.783 z"
       style="fill:#f8252a;stroke:none" />
    <path
       inkscape:connector-curvature="0"
       id="path3145"
       d="m 292.222,470.367 c 4.555,-8.154 13.269,-13.668 23.273,-13.668 10.003,0 18.718,5.514 23.272,13.668 -6.339,-2.363 -14.442,-3.783 -23.272,-3.783 -8.831,0 -16.933,1.42 -23.273,3.783 z"
       style="fill:#f8252a;stroke:none" />
    <path
       inkscape:connector-curvature="0"
       id="path3147"
       d="m 314.294,442.218 c 5.624,-3.142 9.427,-9.152 9.427,-16.051 0,-6.899 -3.803,-12.909 -9.427,-16.05 1.629,4.372 2.609,9.96 2.609,16.05 0,6.09 -0.98,11.679 -2.609,16.051 z"
       style="fill:#f8252a;stroke:none" />
    <path
       inkscape:connector-curvature="0"
       id="path3149"
       d="m 268.854,442.218 c -5.624,-3.142 -9.427,-9.152 -9.427,-16.051 0,-6.899 3.803,-12.909 9.427,-16.05 -1.63,4.372 -2.609,9.96 -2.609,16.05 0,6.09 0.979,11.679 2.609,16.051 z"
       style="fill:#f8252a;stroke:none" />
    <path
       inkscape:connector-curvature="0"
       id="path3151"
       d="m 263.043,394.101 -3.88,4.109 15.367,17.451 10.234,-11.209 c -8.111,-1.699 -15.516,-5.313 -21.721,-10.351 z"
       style="fill:#f8252a;stroke:none" />
    <path
       inkscape:connector-curvature="0"
       id="path3153"
       d="m 320.963,394.101 3.88,4.109 -15.367,17.451 -10.235,-11.209 c 8.112,-1.699 15.517,-5.313 21.722,-10.351 z"
       style="fill:#f8252a;stroke:none" />
    <g
       id="g3155">
      <path
         inkscape:connector-curvature="0"
         id="path3157"
         d="m 291.902,247.716 c 7.108,22.447 39.235,73.465 44.159,93.204 l -0.004,-0.003 c 1.242,4.161 1.911,8.57 1.911,13.134 0,25.329 -20.533,45.862 -45.862,45.862 -25.33,0 -45.863,-20.533 -45.863,-45.862 0,-9.247 2.739,-17.852 7.445,-25.055 10.041,-16.644 32.127,-62.061 38.214,-81.28 z"
         style="fill:#1b89d7;stroke:none" />
      <path
         inkscape:connector-curvature="0"
         id="path3159"
         d="m 246.512,359.094 c -5.001,-0.614 -8.56,-5.166 -7.946,-10.168 0.613,-5.002 5.166,-8.56 10.168,-7.947 l -0.614,5.007 c -2.237,-0.274 -4.273,1.317 -4.548,3.554 -0.274,2.237 1.318,4.274 3.554,4.548 l -0.614,5.006 z"
         style="fill:#1b89d7;stroke:none" />
      <path
         inkscape:connector-curvature="0"
         id="path3161"
         d="m 337.596,359.094 c 5.002,-0.614 8.56,-5.166 7.947,-10.168 -0.613,-5.002 -5.166,-8.56 -10.168,-7.947 l 0.614,5.007 c 2.236,-0.274 4.273,1.317 4.547,3.554 0.275,2.237 -1.317,4.274 -3.553,4.548 l 0.613,5.006 z"
         style="fill:#1b89d7;stroke:none" />
      <path
         inkscape:connector-curvature="0"
         id="path3163"
         d="m 301.685,357.62 c -0.055,-5.039 -4.185,-9.08 -9.224,-9.026 -5.039,0.055 -9.08,4.185 -9.025,9.224 l 5.044,-0.055 c -0.025,-2.253 1.783,-4.1 4.036,-4.125 2.254,-0.024 4.102,1.783 4.126,4.037 l 5.043,-0.055 z"
         style="fill:#ffffff;stroke:none" />
      <path
         inkscape:connector-curvature="0"
         id="path3165"
         d="m 283.386,346.986 c 5.855,-4.182 11.173,-4.508 17.799,0.088 3.359,2.33 5.966,4.688 10.458,4.688 6.469,0 11.715,-5.246 11.715,-11.715 0,-6.469 -7.304,-11.716 -11.715,-11.716 -3.954,0 -5.781,1.203 -8.899,3.015 -7.958,4.625 -12.72,5.065 -20.27,0.31 -3.246,-2.044 -5.622,-3.325 -9.718,-3.325 -4.411,0 -11.715,5.247 -11.715,11.716 0,6.469 5.246,11.715 11.715,11.715 4.558,0 7.255,-2.365 10.63,-4.776 z"
         style="fill:#ffffff;stroke:none" />
      <path
         inkscape:connector-curvature="0"
         id="path3167"
         d="m 321.884,366.327 c 3.386,-0.469 6.812,-2.644 10.276,-6.551 -1.954,11.527 -7.658,19.359 -20.073,19.195 -6.018,-0.08 -13.658,-3.147 -17.456,-7.992 -3.022,-3.854 -3.925,-10.31 0.6,-13.219 1.824,-1.175 5.087,-1.031 8.024,-0.35 3.294,0.763 5.607,1.941 7.76,4.061 3.177,3.131 5.867,5.55 10.869,4.856 z"
         style="fill:#ffffff;stroke:none" />
      <path
         inkscape:connector-curvature="0"
         id="path3169"
         d="m 262.138,366.327 c -3.387,-0.469 -6.813,-2.644 -10.278,-6.551 1.955,11.527 7.659,19.359 20.074,19.195 6.018,-0.08 13.657,-3.147 17.455,-7.992 3.023,-3.854 3.926,-10.31 -0.599,-13.219 -1.824,-1.175 -5.088,-1.031 -8.025,-0.35 -3.292,0.763 -5.607,1.941 -7.758,4.061 -3.179,3.131 -5.868,5.55 -10.869,4.856 z"
         style="fill:#ffffff;stroke:none" />
      <path
         inkscape:connector-curvature="0"
         id="path3171"
         d="m 289.673,383.238 c -5.023,-0.074 -9.045,-4.196 -8.991,-9.222 l 5.044,0.055 c -0.024,2.223 1.736,4.051 3.947,4.123 l 0,5.044 z"
         style="fill:#ffffff;stroke:none" />
      <path
         inkscape:connector-curvature="0"
         id="path3173"
         d="m 294.511,383.238 c 5.023,-0.074 9.045,-4.196 8.991,-9.222 l -5.044,0.055 c 0.024,2.223 -1.736,4.051 -3.947,4.123 l 0,5.044 z"
         style="fill:#ffffff;stroke:none" />
      <path
         inkscape:connector-curvature="0"
         id="path3175"
         d="m 289.673,378.194 5.065,0 0,5.037 -5.065,0 0,-5.037 z"
         style="fill:#ffffff;stroke:none" />
      <path
         inkscape:connector-curvature="0"
         id="path3177"
         d="m 252.849,330.329 c 0,-19.635 0,-39.271 0,-58.908 2.53,17.328 24.766,33.107 39.652,38.05 -7.164,6.953 -32.49,13.906 -39.652,20.858 z"
         style="fill:#1b89d7;stroke:none" />
      <path
         inkscape:connector-curvature="0"
         id="path3179"
         d="m 283.075,325.388 c -0.054,-5.039 -4.184,-9.081 -9.223,-9.026 -5.039,0.055 -9.08,4.185 -9.026,9.223 l 5.044,-0.054 c -0.024,-2.253 1.784,-4.101 4.037,-4.125 2.254,-0.025 4.101,1.783 4.126,4.036 l 5.042,-0.054 z"
         style="fill:#ffffff;stroke:none" />
      <path
         inkscape:connector-curvature="0"
         id="path3181"
         d="m 331.379,330.329 c 0,-19.635 0,-39.271 0,-58.908 -2.53,17.328 -24.767,33.107 -39.652,38.05 7.163,6.953 32.489,13.906 39.652,20.858 z"
         style="fill:#1b89d7;stroke:none" />
      <path
         inkscape:connector-curvature="0"
         id="path3183"
         d="m 318.357,325.388 c -0.054,-5.039 -4.184,-9.081 -9.223,-9.026 -5.039,0.055 -9.08,4.185 -9.026,9.223 l 5.044,-0.054 c -0.024,-2.253 1.783,-4.101 4.037,-4.125 2.254,-0.025 4.101,1.783 4.126,4.036 l 5.042,-0.054 z"
         style="fill:#ffffff;stroke:none" />
      <path
         inkscape:connector-curvature="0"
         id="path3185"
         d="m 282.878,243.519 c 2.232,0 3.847,14.962 -0.123,14.962 -3.414,0 -2.083,-14.962 0.123,-14.962 z"
         style="fill:#00ccff;stroke:none" />
      <path
         inkscape:connector-curvature="0"
         id="path3187"
         d="m 291.548,228.672 c 2.232,0 3.847,14.962 -0.123,14.962 -3.414,0 -2.083,-14.962 0.123,-14.962 z"
         style="fill:#00ccff;stroke:none" />
      <path
         inkscape:connector-curvature="0"
         id="path3189"
         d="m 276.389,256.184 c 2.233,0 3.848,14.962 -0.122,14.962 -3.415,0 -2.084,-14.962 0.122,-14.962 z"
         style="fill:#00ccff;stroke:none" />
      <path
         inkscape:connector-curvature="0"
         id="path3191"
         d="m 269.901,268.849 c 2.232,0 3.847,14.962 -0.123,14.962 -3.414,0 -2.084,-14.962 0.123,-14.962 z"
         style="fill:#1b89d7;stroke:none" />
      <path
         inkscape:connector-curvature="0"
         id="path3193"
         d="m 282.878,243.519 c 2.232,0 3.847,14.962 -0.123,14.962 -3.414,0 -2.083,-14.962 0.123,-14.962 z"
         style="fill:#1b89d7;stroke:none" />
      <path
         inkscape:connector-curvature="0"
         id="path3195"
         d="m 276.389,256.184 c 2.233,0 3.848,14.962 -0.122,14.962 -3.415,0 -2.084,-14.962 0.122,-14.962 z"
         style="fill:#1b89d7;stroke:none" />
      <path
         inkscape:connector-curvature="0"
         id="path3197"
         d="m 300.319,243.519 c -2.232,0 -3.847,14.962 0.123,14.962 3.414,0 2.083,-14.962 -0.123,-14.962 z"
         style="fill:#00ccff;stroke:none" />
      <path
         inkscape:connector-curvature="0"
         id="path3199"
         d="m 291.649,228.672 c -2.232,0 -3.847,14.962 0.123,14.962 3.414,0 2.083,-14.962 -0.123,-14.962 z"
         style="fill:#1b89d7;stroke:none" />
      <path
         inkscape:connector-curvature="0"
         id="path3201"
         d="m 306.808,256.184 c -2.233,0 -3.848,14.962 0.122,14.962 3.415,0 2.084,-14.962 -0.122,-14.962 z"
         style="fill:#00ccff;stroke:none" />
      <path
         inkscape:connector-curvature="0"
         id="path3203"
         d="m 313.296,268.849 c -2.232,0 -3.847,14.962 0.123,14.962 3.414,0 2.083,-14.962 -0.123,-14.962 z"
         style="fill:#1b89d7;stroke:none" />
      <path
         inkscape:connector-curvature="0"
         id="path3205"
         d="m 300.319,243.519 c -2.232,0 -3.847,14.962 0.123,14.962 3.414,0 2.083,-14.962 -0.123,-14.962 z"
         style="fill:#1b89d7;stroke:none" />
      <path
         inkscape:connector-curvature="0"
         id="path3207"
         d="m 306.808,256.184 c -2.233,0 -3.848,14.962 0.122,14.962 3.415,0 2.084,-14.962 -0.122,-14.962 z"
         style="fill:#1b89d7;stroke:none" />
    </g>
    <path
       inkscape:connector-curvature="0"
       id="path3209"
       d="m 112.085,500.21 -10.594,49.544 11.217,0 0.623,-3.116 c 1.675,1.428 3.311,2.479 4.895,3.142 1.597,0.662 3.129,0.999 4.609,0.986 1.935,-0.013 3.791,-0.493 5.609,-1.454 1.805,-0.947 3.505,-2.297 5.115,-4.037 1.597,-1.74 3.064,-3.804 4.388,-6.18 1.325,-2.376 2.467,-4.986 3.441,-7.842 0.961,-2.857 1.701,-5.881 2.233,-9.062 0.52,-3.195 0.792,-6.466 0.792,-9.829 0.013,-2.207 -0.194,-4.349 -0.61,-6.4 -0.416,-2.065 -1.116,-3.986 -2.104,-5.752 -0.986,-1.766 -2.337,-3.311 -4.051,-4.648 -1.713,-1.325 -3.855,-2.363 -6.426,-3.103 -2.57,-0.74 -5.661,-1.116 -9.244,-1.13 -2.622,0.014 -5.232,0.377 -7.842,1.117 -2.597,0.727 -5.063,1.74 -7.4,3.025 -2.337,1.299 -4.415,2.791 -6.219,4.505 -1.8181,1.714 -3.2461,3.545 -4.2844,5.518 -1.0391,1.974 -1.5709,3.999 -1.5969,6.09 0,1.856 0.3247,3.336 0.9604,4.452 0.6494,1.104 1.5839,1.909 2.8308,2.39 1.2332,0.48 2.7521,0.726 4.5441,0.713 -0.039,-0.207 -0.143,-0.48 -0.312,-0.804 -0.182,-0.325 -0.351,-0.819 -0.52,-1.506 -0.155,-0.689 -0.246,-1.688 -0.259,-2.987 0.013,-2.973 0.519,-5.622 1.506,-7.958 1,-2.337 2.428,-4.311 4.271,-5.947 1.857,-1.636 4.077,-2.882 6.648,-3.739 2.571,-0.856 5.44,-1.285 8.608,-1.285 2.233,0 4.05,0.338 5.466,1.012 1.402,0.676 2.505,1.662 3.272,2.974 0.765,1.298 1.298,2.895 1.597,4.791 0.285,1.882 0.428,4.05 0.415,6.491 0,2.506 -0.156,5.076 -0.467,7.686 -0.299,2.623 -0.754,5.193 -1.35,7.712 -0.598,2.506 -1.325,4.869 -2.182,7.076 -0.87,2.207 -1.843,4.154 -2.96,5.829 -1.104,1.688 -2.337,3.013 -3.674,3.973 -1.338,0.948 -2.779,1.441 -4.324,1.454 -0.739,0 -1.48,-0.117 -2.22,-0.363 -0.74,-0.259 -1.48,-0.649 -2.22,-1.195 l 9.348,-43.701 -11.529,1.558 z m 39.495,10.594 -8.258,38.95 11.218,0 6.465,-30.537 c 0.585,-0.545 1.143,-0.999 1.675,-1.376 0.52,-0.363 1.078,-0.649 1.663,-0.831 0.596,-0.194 1.272,-0.285 2.037,-0.285 0.455,0.013 0.767,0.195 0.949,0.532 0.182,0.337 0.311,0.766 0.389,1.273 0.091,0.505 0.221,1.012 0.376,1.519 0.169,0.518 0.468,0.934 0.883,1.285 0.429,0.337 1.065,0.519 1.922,0.532 0.96,-0.013 1.792,-0.195 2.518,-0.571 0.728,-0.364 1.338,-0.844 1.831,-1.441 0.494,-0.611 0.87,-1.259 1.117,-1.961 0.247,-0.714 0.377,-1.415 0.377,-2.103 0,-1 -0.234,-1.87 -0.676,-2.61 -0.441,-0.74 -1.09,-1.324 -1.921,-1.739 -0.832,-0.416 -1.844,-0.637 -3.012,-0.637 -1.091,0.013 -2.168,0.182 -3.22,0.52 -1.052,0.351 -2.064,0.804 -3.064,1.389 -1,0.597 -1.974,1.246 -2.908,1.986 l 0.856,-3.895 -11.217,0 z m 50.634,0 -5.608,26.486 c -0.234,0.935 -0.389,1.792 -0.467,2.571 -0.988,0.805 -1.948,1.467 -2.883,1.986 -0.948,0.532 -1.83,0.805 -2.648,0.818 -1.026,0 -1.831,-0.13 -2.389,-0.39 -0.571,-0.246 -0.974,-0.596 -1.195,-1.038 -0.221,-0.442 -0.324,-0.961 -0.311,-1.532 0,-0.351 0.039,-0.74 0.09,-1.143 0.065,-0.415 0.143,-0.843 0.221,-1.272 l 5.609,-26.486 -11.218,0 -5.608,26.486 c -0.311,1.48 -0.467,2.804 -0.467,3.973 0.013,1.948 0.402,3.544 1.194,4.804 0.779,1.246 1.896,2.181 3.35,2.778 1.453,0.61 3.18,0.909 5.193,0.909 1.129,-0.013 2.324,-0.325 3.583,-0.935 1.259,-0.61 2.545,-1.402 3.843,-2.389 1.298,-0.987 2.558,-2.064 3.791,-3.219 0.247,1.506 0.779,2.739 1.623,3.7 0.831,0.973 1.922,1.688 3.272,2.155 1.35,0.454 2.908,0.688 4.687,0.688 1.013,-0.013 2.09,-0.273 3.233,-0.779 1.129,-0.519 2.285,-1.195 3.454,-2.038 1.181,-0.844 2.336,-1.792 3.479,-2.818 1.142,-1.025 2.233,-2.051 3.272,-3.103 1.025,-1.038 1.973,-2.025 2.83,-2.934 0.857,-0.896 1.584,-1.661 2.194,-2.272 l -2.649,0 c -0.778,0.637 -1.61,1.35 -2.479,2.129 -0.87,0.766 -1.766,1.519 -2.662,2.233 -0.896,0.714 -1.792,1.312 -2.661,1.779 -0.871,0.454 -1.701,0.701 -2.48,0.714 -1.026,0 -1.831,-0.13 -2.389,-0.39 -0.571,-0.246 -0.974,-0.596 -1.195,-1.038 -0.221,-0.442 -0.325,-0.961 -0.312,-1.532 0,-0.351 0.039,-0.74 0.091,-1.143 0.065,-0.415 0.143,-0.843 0.221,-1.272 l 5.609,-26.486 -11.218,0 z m 19.631,0 -12.386,58.425 11.763,-2.791 4.051,-19.021 c 1.168,0.74 2.363,1.325 3.57,1.726 1.221,0.403 2.467,0.611 3.752,0.611 2,0.013 3.895,-0.377 5.674,-1.155 1.792,-0.78 3.44,-2.039 4.933,-3.792 1.493,-1.739 2.792,-4.051 3.883,-6.932 1.103,-2.883 1.96,-6.415 2.571,-10.595 0.155,-1.013 0.272,-1.973 0.349,-2.883 0.078,-0.908 0.117,-1.765 0.117,-2.583 0,-2.675 -0.428,-4.804 -1.285,-6.414 -0.87,-1.61 -2.181,-2.765 -3.947,-3.479 -1.753,-0.701 -3.986,-1.052 -6.686,-1.039 -0.973,0 -1.922,0.13 -2.843,0.377 -0.922,0.247 -1.792,0.597 -2.61,1.025 l 0.312,-1.48 -11.218,0 z m 9.504,33.185 c -0.416,0.013 -0.909,-0.013 -1.454,-0.052 -0.546,-0.039 -1.13,-0.169 -1.74,-0.364 -0.623,-0.193 -1.247,-0.531 -1.869,-0.986 l 5.609,-26.239 c 0.739,-0.519 1.479,-0.922 2.219,-1.207 0.74,-0.286 1.48,-0.442 2.22,-0.442 0.845,-0.013 1.584,0.117 2.247,0.416 0.648,0.298 1.168,0.844 1.545,1.662 0.376,0.817 0.571,1.999 0.571,3.544 0,0.935 -0.078,2.051 -0.247,3.363 -0.156,1.298 -0.415,2.817 -0.766,4.531 -0.636,3.089 -1.246,5.66 -1.844,7.699 -0.583,2.051 -1.194,3.661 -1.83,4.842 -0.623,1.182 -1.324,2.026 -2.078,2.52 -0.752,0.492 -1.61,0.726 -2.583,0.713 z m 45.96,-33.185 -0.467,2.026 c -0.714,-0.598 -1.532,-1.065 -2.44,-1.415 -0.91,-0.351 -1.831,-0.52 -2.779,-0.533 -2.597,0.013 -4.895,0.429 -6.92,1.246 -2.026,0.819 -3.792,1.961 -5.297,3.415 -1.506,1.442 -2.779,3.129 -3.831,5.037 -1.051,1.909 -1.895,3.96 -2.531,6.155 -0.636,2.194 -1.104,4.453 -1.402,6.764 -0.286,2.298 -0.429,4.583 -0.429,6.829 -0.013,1.169 0.143,2.324 0.455,3.479 0.311,1.169 0.844,2.221 1.571,3.195 0.727,0.96 1.727,1.74 2.973,2.323 1.246,0.585 2.804,0.883 4.661,0.897 1.583,-0.026 3.025,-0.338 4.336,-0.949 1.311,-0.609 2.493,-1.402 3.532,-2.362 1.038,-0.974 1.947,-1.987 2.726,-3.078 0.519,2.026 1.597,3.519 3.233,4.48 1.636,0.973 3.726,1.454 6.271,1.441 1.012,-0.013 2.09,-0.273 3.232,-0.779 1.13,-0.519 2.286,-1.195 3.454,-2.038 1.182,-0.844 2.337,-1.779 3.479,-2.805 1.143,-1.025 2.234,-2.064 3.272,-3.116 1.026,-1.038 1.974,-2.025 2.831,-2.934 0.856,-0.909 1.584,-1.661 2.194,-2.272 l -2.649,0 c -0.779,0.637 -1.61,1.35 -2.48,2.129 -0.869,0.766 -1.766,1.519 -2.661,2.233 -0.896,0.714 -1.792,1.312 -2.662,1.779 -0.869,0.454 -1.701,0.701 -2.479,0.714 -1.026,0 -1.831,-0.13 -2.389,-0.39 -0.571,-0.246 -0.974,-0.596 -1.195,-1.038 -0.22,-0.442 -0.324,-0.961 -0.311,-1.532 0,-0.351 0.039,-0.74 0.091,-1.143 0.064,-0.415 0.142,-0.843 0.22,-1.272 l 5.609,-26.486 -11.218,0 z m -5.063,4.44 c 0.559,-0.013 1.168,0.091 1.844,0.286 0.674,0.208 1.337,0.584 1.973,1.117 l -4.362,20.643 c -0.234,0.935 -0.39,1.792 -0.468,2.571 -0.493,0.74 -1.012,1.389 -1.558,1.973 -0.532,0.597 -1.09,1.052 -1.662,1.403 -0.583,0.336 -1.168,0.505 -1.765,0.518 -0.675,0.013 -1.35,-0.117 -2.039,-0.389 -0.688,-0.285 -1.272,-0.831 -1.74,-1.635 -0.479,-0.793 -0.726,-1.961 -0.739,-3.506 0,-2.142 0.182,-4.285 0.532,-6.453 0.35,-2.168 0.844,-4.245 1.48,-6.219 0.649,-1.96 1.402,-3.726 2.272,-5.271 0.883,-1.545 1.843,-2.766 2.896,-3.661 1.051,-0.896 2.168,-1.364 3.336,-1.377 z m 28.2,-18.461 -8.647,40.507 c -0.312,1.48 -0.468,2.804 -0.468,3.973 0.013,1.948 0.403,3.544 1.169,4.804 0.779,1.246 1.883,2.181 3.324,2.778 1.441,0.61 3.155,0.909 5.167,0.909 1.012,-0.013 2.091,-0.273 3.233,-0.779 1.129,-0.519 2.285,-1.195 3.453,-2.038 1.182,-0.844 2.338,-1.792 3.48,-2.818 1.142,-1.025 2.233,-2.051 3.271,-3.103 1.027,-1.038 1.974,-2.025 2.831,-2.934 0.857,-0.896 1.584,-1.661 2.194,-2.272 l -2.648,0 c -0.78,0.637 -1.61,1.35 -2.481,2.129 -0.869,0.766 -1.765,1.519 -2.661,2.233 -0.896,0.714 -1.791,1.312 -2.662,1.779 -0.869,0.454 -1.7,0.701 -2.479,0.714 -1,0 -1.792,-0.13 -2.363,-0.364 -0.572,-0.246 -0.961,-0.583 -1.194,-1.012 -0.234,-0.429 -0.351,-0.935 -0.338,-1.506 0,-0.299 0.039,-0.649 0.104,-1.039 0.078,-0.39 0.169,-0.882 0.286,-1.454 l 8.958,-42.065 -11.529,1.558 z m 52.581,38.949 c -0.973,1.662 -2.22,3.051 -3.726,4.155 -1.506,1.103 -3.181,1.934 -5.037,2.492 -1.857,0.559 -3.792,0.832 -5.804,0.832 -2.09,0 -3.804,-0.273 -5.154,-0.845 -1.35,-0.558 -2.389,-1.428 -3.142,-2.609 -0.753,-1.182 -1.272,-2.688 -1.558,-4.531 -0.299,-1.844 -0.442,-4.038 -0.429,-6.583 0,-2.337 0.169,-4.764 0.507,-7.309 0.325,-2.545 0.805,-5.064 1.441,-7.583 0.636,-2.505 1.415,-4.894 2.324,-7.141 0.922,-2.245 1.961,-4.232 3.129,-5.971 1.168,-1.753 2.453,-3.116 3.843,-4.116 1.402,-1 2.895,-1.519 4.492,-1.532 1.233,0.013 2.22,0.247 2.947,0.688 0.727,0.441 1.26,0.974 1.611,1.61 0.349,0.636 0.57,1.246 0.674,1.844 0.104,0.596 0.156,1.051 0.143,1.389 0,0.493 -0.091,1.077 -0.26,1.74 -0.169,0.661 -0.415,1.324 -0.726,1.973 -0.299,0.662 -0.663,1.233 -1.078,1.714 -0.415,0.493 -0.87,0.804 -1.363,0.96 0.493,0.559 1.012,0.987 1.531,1.285 0.52,0.299 1.04,0.494 1.532,0.598 0.494,0.104 0.962,0.143 1.377,0.143 1.324,-0.013 2.376,-0.325 3.181,-0.948 0.804,-0.61 1.376,-1.454 1.74,-2.532 0.363,-1.064 0.544,-2.298 0.531,-3.687 -0.013,-1.883 -0.375,-3.493 -1.103,-4.817 -0.714,-1.337 -1.701,-2.415 -2.96,-3.232 -1.247,-0.832 -2.688,-1.442 -4.311,-1.818 -1.622,-0.39 -3.349,-0.572 -5.18,-0.572 -3.44,0.026 -6.491,0.585 -9.14,1.714 -2.648,1.117 -4.934,2.662 -6.881,4.635 -1.935,1.961 -3.557,4.233 -4.869,6.791 -1.324,2.57 -2.376,5.31 -3.154,8.218 -0.793,2.921 -1.351,5.869 -1.701,8.88 -0.351,3.012 -0.52,5.934 -0.507,8.79 0.013,3.181 0.351,5.921 1.013,8.192 0.662,2.285 1.558,4.181 2.701,5.7 1.142,1.506 2.453,2.701 3.908,3.583 1.467,0.871 2.999,1.493 4.608,1.857 1.623,0.364 3.233,0.545 4.83,0.533 1.48,0.012 3.039,-0.104 4.687,-0.338 1.649,-0.234 3.298,-0.637 4.96,-1.207 1.675,-0.585 3.272,-1.39 4.816,-2.429 1.532,-1.038 2.934,-2.35 4.194,-3.947 1.272,-1.596 2.324,-3.518 3.155,-5.79 l -1.792,-0.779 z m 24.461,-24.928 -0.468,2.026 c -0.714,-0.598 -1.532,-1.065 -2.44,-1.415 -0.91,-0.351 -1.831,-0.52 -2.779,-0.533 -2.597,0.013 -4.895,0.429 -6.92,1.246 -2.026,0.819 -3.791,1.961 -5.297,3.415 -1.506,1.442 -2.778,3.129 -3.831,5.037 -1.051,1.909 -1.895,3.96 -2.531,6.155 -0.636,2.194 -1.104,4.453 -1.402,6.764 -0.286,2.298 -0.429,4.583 -0.429,6.829 -0.012,1.169 0.143,2.324 0.455,3.479 0.311,1.169 0.844,2.221 1.571,3.195 0.727,0.96 1.727,1.74 2.973,2.323 1.246,0.585 2.804,0.883 4.661,0.897 1.583,-0.026 3.025,-0.338 4.336,-0.949 1.311,-0.609 2.493,-1.402 3.532,-2.362 1.038,-0.974 1.947,-1.987 2.726,-3.078 0.519,2.026 1.597,3.519 3.233,4.48 1.636,0.973 3.726,1.454 6.271,1.441 1.012,-0.013 2.09,-0.273 3.233,-0.779 1.13,-0.519 2.285,-1.195 3.453,-2.038 1.182,-0.844 2.337,-1.779 3.479,-2.805 1.144,-1.025 2.234,-2.064 3.272,-3.116 1.026,-1.038 1.974,-2.025 2.831,-2.934 0.856,-0.909 1.584,-1.661 2.194,-2.272 l -2.649,0 c -0.779,0.637 -1.61,1.35 -2.48,2.129 -0.869,0.766 -1.765,1.519 -2.661,2.233 -0.896,0.714 -1.792,1.312 -2.662,1.779 -0.869,0.454 -1.701,0.701 -2.479,0.714 -1.026,0 -1.831,-0.13 -2.389,-0.39 -0.571,-0.246 -0.974,-0.596 -1.195,-1.038 -0.22,-0.442 -0.324,-0.961 -0.311,-1.532 0,-0.351 0.039,-0.74 0.091,-1.143 0.065,-0.415 0.142,-0.843 0.22,-1.272 l 5.609,-26.486 -11.217,0 z m -5.064,4.44 c 0.559,-0.013 1.168,0.091 1.844,0.286 0.675,0.208 1.337,0.584 1.973,1.117 l -4.362,20.643 c -0.234,0.935 -0.39,1.792 -0.468,2.571 -0.493,0.74 -1.012,1.389 -1.558,1.973 -0.532,0.597 -1.09,1.052 -1.662,1.403 -0.583,0.336 -1.168,0.505 -1.765,0.518 -0.675,0.013 -1.35,-0.117 -2.039,-0.389 -0.687,-0.285 -1.272,-0.831 -1.74,-1.635 -0.479,-0.793 -0.726,-1.961 -0.739,-3.506 0,-2.142 0.182,-4.285 0.532,-6.453 0.35,-2.168 0.844,-4.245 1.48,-6.219 0.649,-1.96 1.402,-3.726 2.272,-5.271 0.883,-1.545 1.843,-2.766 2.896,-3.661 1.051,-0.896 2.168,-1.364 3.336,-1.377 z m 72.758,7.167 c 0.039,-0.311 0.078,-0.61 0.104,-0.895 0.039,-0.286 0.052,-0.585 0.052,-0.897 -0.013,-1.337 -0.273,-2.596 -0.792,-3.764 -0.519,-1.182 -1.22,-2.22 -2.078,-3.13 -0.869,-0.908 -1.83,-1.623 -2.882,-2.128 -1.051,-0.52 -2.116,-0.78 -3.206,-0.793 -1.273,0.013 -2.571,0.26 -3.883,0.728 -1.311,0.467 -2.596,1.09 -3.869,1.869 -1.259,0.779 -2.466,1.623 -3.622,2.545 -0.584,-1.026 -1.285,-1.922 -2.116,-2.688 -0.831,-0.766 -1.726,-1.363 -2.701,-1.791 -0.96,-0.442 -1.921,-0.65 -2.895,-0.663 -1.117,0.013 -2.259,0.195 -3.401,0.572 -1.143,0.363 -2.285,0.856 -3.402,1.48 -1.117,0.623 -2.207,1.311 -3.246,2.077 l 0.857,-4.129 -11.218,0 -8.257,38.95 11.218,0 6.699,-31.471 c 0.766,-0.546 1.519,-0.961 2.259,-1.234 0.74,-0.272 1.571,-0.402 2.493,-0.402 1.077,0.013 1.934,0.428 2.584,1.246 0.649,0.818 0.986,1.935 0.999,3.35 0,0.311 -0.013,0.636 -0.052,0.987 -0.039,0.337 -0.104,0.687 -0.182,1.038 l -5.608,26.486 11.295,0 5.765,-27.343 c 0.039,-0.272 0.078,-0.545 0.104,-0.818 0.039,-0.272 0.052,-0.545 0.052,-0.818 0,-0.467 -0.039,-0.921 -0.104,-1.363 -0.065,-0.442 -0.169,-0.895 -0.286,-1.363 0.727,-0.468 1.454,-0.818 2.169,-1.051 0.726,-0.234 1.505,-0.351 2.349,-0.351 1.078,0.013 1.935,0.428 2.584,1.246 0.649,0.818 0.986,1.935 0.999,3.35 0,0.311 -0.013,0.636 -0.052,0.987 -0.039,0.337 -0.103,0.687 -0.181,1.038 l -2.96,14.022 c -0.156,0.74 -0.273,1.428 -0.351,2.077 -0.078,0.649 -0.117,1.273 -0.117,1.896 0.013,1.948 0.39,3.544 1.156,4.804 0.766,1.246 1.857,2.181 3.298,2.778 1.441,0.61 3.18,0.909 5.206,0.909 1.22,-0.026 2.467,-0.39 3.726,-1.09 1.259,-0.702 2.505,-1.61 3.739,-2.74 1.234,-1.13 2.415,-2.351 3.545,-3.636 1.129,-1.298 2.167,-2.557 3.129,-3.765 0.973,-1.207 1.804,-2.245 2.531,-3.103 l -3.661,0 c -0.454,0.858 -0.987,1.74 -1.597,2.649 -0.61,0.922 -1.272,1.779 -1.999,2.584 -0.714,0.792 -1.468,1.441 -2.246,1.947 -0.78,0.494 -1.558,0.754 -2.338,0.766 -0.817,0 -1.466,-0.142 -1.934,-0.428 -0.467,-0.286 -0.792,-0.663 -0.987,-1.143 -0.181,-0.48 -0.272,-1.013 -0.272,-1.623 0,-0.467 0.039,-0.947 0.104,-1.441 0.078,-0.493 0.168,-0.973 0.285,-1.441 l 3.194,-14.879 z m 9.659,-11.607 -12.386,58.425 11.764,-2.791 4.05,-19.021 c 1.169,0.74 2.363,1.325 3.57,1.726 1.221,0.403 2.467,0.611 3.752,0.611 2,0.013 3.895,-0.377 5.674,-1.155 1.792,-0.78 3.441,-2.039 4.934,-3.792 1.493,-1.739 2.791,-4.051 3.882,-6.932 1.103,-2.883 1.96,-6.415 2.571,-10.595 0.155,-1.013 0.272,-1.973 0.35,-2.883 0.078,-0.908 0.117,-1.765 0.117,-2.583 0,-2.675 -0.429,-4.804 -1.286,-6.414 -0.87,-1.61 -2.181,-2.765 -3.947,-3.479 -1.752,-0.701 -3.986,-1.052 -6.686,-1.039 -0.973,0 -1.921,0.13 -2.843,0.377 -0.922,0.247 -1.791,0.597 -2.61,1.025 l 0.312,-1.48 -11.218,0 z m 9.504,33.185 c -0.415,0.013 -0.909,-0.013 -1.454,-0.052 -0.545,-0.039 -1.13,-0.169 -1.74,-0.364 -0.623,-0.193 -1.246,-0.531 -1.869,-0.986 l 5.609,-26.239 c 0.739,-0.519 1.48,-0.922 2.219,-1.207 0.741,-0.286 1.48,-0.442 2.221,-0.442 0.844,-0.013 1.583,0.117 2.246,0.416 0.649,0.298 1.168,0.844 1.545,1.662 0.376,0.817 0.571,1.999 0.571,3.544 0,0.935 -0.078,2.051 -0.246,3.363 -0.156,1.298 -0.416,2.817 -0.767,4.531 -0.636,3.089 -1.246,5.66 -1.843,7.699 -0.584,2.051 -1.195,3.661 -1.831,4.842 -0.623,1.182 -1.324,2.026 -2.078,2.52 -0.752,0.492 -1.609,0.726 -2.583,0.713 z"
       style="fill:#f8252a;stroke:none" />
    <path
       inkscape:connector-curvature="0"
       id="path3211"
       d="m 118.346,593.428 0.091,0 2.995,-15.324 4.669,0 -5.272,22.582 -4.203,0 -4.16,-14.874 -0.091,0 -4.139,14.874 -4.203,0 -5.2722,-22.582 4.6632,0 3.012,15.309 0.09,0 4.065,-15.309 3.659,0 4.096,15.324 z m 53.117,-1.768 0,9.026 -4.526,0 0,-22.582 7.814,0 c 2.572,0 4.589,0.587 6.039,1.763 1.456,1.175 2.181,2.81 2.181,4.907 0,1.159 -0.307,2.16 -0.921,3.001 -0.619,0.842 -1.514,1.525 -2.694,2.039 1.334,0.391 2.292,1.053 2.879,1.969 0.582,0.92 0.874,2.059 0.874,3.413 l 0,1.658 c 0,0.635 0.084,1.291 0.259,1.979 0.17,0.689 0.461,1.197 0.874,1.525 l 0,0.328 -4.669,0 c -0.413,-0.333 -0.678,-0.879 -0.8,-1.646 -0.116,-0.762 -0.174,-1.503 -0.174,-2.218 l 0,-1.593 c 0,-1.128 -0.307,-2.007 -0.927,-2.631 -0.614,-0.625 -1.482,-0.938 -2.609,-0.938 l -3.6,0 z m 0,-3.488 3.214,0 c 1.27,0 2.212,-0.27 2.836,-0.809 0.62,-0.535 0.927,-1.334 0.927,-2.388 0,-1.032 -0.312,-1.853 -0.937,-2.466 -0.624,-0.609 -1.541,-0.911 -2.752,-0.911 l -3.288,0 0,6.574 z m 72.412,3.256 c 0,2.779 -0.874,5.071 -2.621,6.876 -1.747,1.805 -4.023,2.711 -6.823,2.711 -2.795,0 -5.055,-0.906 -6.797,-2.717 -1.736,-1.81 -2.604,-4.102 -2.604,-6.87 l 0,-4.065 c 0,-2.759 0.868,-5.045 2.599,-6.861 1.731,-1.815 3.986,-2.721 6.77,-2.721 2.8,0 5.082,0.906 6.84,2.721 1.757,1.816 2.636,4.102 2.636,6.861 l 0,4.065 z m -4.516,-4.092 c 0,-1.763 -0.439,-3.202 -1.318,-4.33 -0.878,-1.128 -2.091,-1.688 -3.642,-1.688 -1.53,0 -2.721,0.56 -3.578,1.688 -0.852,1.128 -1.276,2.567 -1.276,4.33 l 0,4.092 c 0,1.789 0.429,3.245 1.287,4.372 0.857,1.128 2.059,1.689 3.599,1.689 1.551,0 2.758,-0.561 3.626,-1.689 0.868,-1.127 1.302,-2.583 1.302,-4.372 l 0,-4.092 z m 63.466,5.875 0.032,0.091 c 0.037,2.413 -0.694,4.298 -2.203,5.663 -1.513,1.367 -3.594,2.05 -6.251,2.05 -2.71,0 -4.896,-0.874 -6.559,-2.616 -1.667,-1.741 -2.498,-3.996 -2.498,-6.754 l 0,-4.483 c 0,-2.748 0.81,-5.003 2.435,-6.755 1.625,-1.752 3.753,-2.626 6.389,-2.626 2.753,0 4.902,0.673 6.453,2.017 1.551,1.345 2.303,3.235 2.265,5.674 l -0.031,0.096 -4.405,0 c 0,-1.45 -0.349,-2.531 -1.047,-3.234 -0.699,-0.709 -1.779,-1.065 -3.235,-1.065 -1.355,0 -2.414,0.546 -3.171,1.636 -0.762,1.09 -1.138,2.499 -1.138,4.225 l 0,4.515 c 0,1.736 0.398,3.155 1.202,4.251 0.799,1.095 1.911,1.641 3.34,1.641 1.355,0 2.366,-0.355 3.033,-1.059 0.667,-0.709 1.001,-1.8 1.001,-3.267 l 4.388,0 z m 46.125,-6.235 3.763,-1.085 0,3.023 -3.763,1.085 0,7.215 10.11,0 0,3.472 -14.642,0 0,-9.38 -1.784,0.508 0,-3.023 1.784,-0.513 0,-10.174 4.532,0 0,8.872 z m 61.909,8.84 -7.321,0 -1.519,4.87 -4.727,0 7.612,-22.582 4.637,0 7.585,22.582 -4.732,0 -1.535,-4.87 z m -6.204,-3.552 5.103,0 -2.493,-7.956 -0.096,0 -2.514,7.956 z m 70.289,1.164 0.09,0 2.996,-15.324 4.669,0 -5.273,22.582 -4.203,0 -4.16,-14.874 -0.09,0 -4.14,14.874 -4.203,0 -5.272,-22.582 4.663,0 3.013,15.309 0.089,0 4.066,-15.309 3.658,0 4.097,15.324 z"
       style="fill:#1b89d7;stroke:none" />
  </g>
  <g
     id="g3213" />
</svg>
